<?xml version="1.0"?>
<svg xmlns:rdf="http://www.w3.org/1999/02/22-rdf-syntax-ns#" xmlns="http://www.w3.org/2000/svg" xmlns:cc="http://creativecommons.org/ns#" xmlns:xlink="http://www.w3.org/1999/xlink" xmlns:dc="http://purl.org/dc/elements/1.1/" id="svg2" viewBox="0 0 1149.5 1157.4" version="1.1">
  <defs id="defs6">
    <filter id="filter15393" color-interpolation-filters="sRGB">
      <feGaussianBlur id="feGaussianBlur15395" stdDeviation="30.57388"/>
    </filter>
  </defs>
  <g id="text3114" fill="#008000" transform="matrix(.86043 -.50957 .50957 .86043 248.69 1144.4)">
    <path id="path3341" d="m154.94 106.87v-176.42h57.162c21.661 0.000176 35.781 0.88267 42.36 2.6475 10.108 2.6477 18.572 8.4039 25.392 17.269 6.8191 8.8652 10.229 20.318 10.229 34.357-0.00015 10.831-1.9657 19.936-5.8967 27.317-3.9313 7.381-8.9254 13.177-14.982 17.389-6.0572 4.212-12.215 6.9999-18.472 8.3636-8.5042 1.6848-20.819 2.5272-36.944 2.5271h-23.226v66.548zm35.621-146.57v50.062h19.495c14.04 0.000097 23.426-0.92251 28.16-2.7678 4.7333-1.8451 8.4438-4.7333 11.131-8.6645 2.6875-3.931 4.0313-8.5039 4.0314-13.719-0.00011-6.418-1.8854-11.713-5.656-15.885-3.7708-4.1717-8.5443-6.779-14.32-7.8221-4.2521-0.80212-12.796-1.2033-25.632-1.2034z"/>
    <path id="path3343" d="m319.68 106.87v-176.42h74.972c18.853 0.000176 32.552 1.5847 41.096 4.7534 8.544 3.1691 15.383 8.8051 20.518 16.908 5.1344 8.1031 7.7016 17.369 7.7018 27.799-0.00016 13.238-3.8912 24.168-11.673 32.793-7.7821 8.6245-19.415 14.06-34.899 16.306 7.7016 4.4928 14.06 9.4267 19.074 14.802s11.773 14.922 20.277 28.641l21.541 34.417h-42.6l-25.753-38.389c-9.14-13.718-15.4-22.362-18.77-25.932-3.3696-3.57-6.9397-6.0169-10.71-7.3408-3.7707-1.3237-9.7476-1.9855-17.931-1.9856h-7.2204v73.648zm35.621-101.81h26.355c17.088 0.0001018 27.758-0.72194 32.01-2.1661 4.2519-1.444 7.5813-3.931 9.9882-7.4611 2.4067-3.5299 3.6101-7.9423 3.6102-13.237-0.00013-5.9367-1.5846-10.73-4.7534-14.381-3.1691-3.6502-7.6417-5.9567-13.418-6.9196-2.8883-0.40099-11.553-0.60156-25.993-0.6017h-27.799z"/>
    <path id="path3345" d="m490.44 19.741c-0.00001-17.971 2.6876-33.053 8.0628-45.248 4.0113-8.9853 9.4868-17.048 16.426-24.188 6.9396-7.14 14.541-12.435 22.804-15.885 10.991-4.653 23.667-6.9796 38.028-6.9797 25.993 0.00018 46.792 8.063 62.396 24.188 15.604 16.126 23.406 38.549 23.406 67.27-0.00018 28.481-7.7421 50.764-23.226 66.849s-36.182 24.128-62.096 24.128c-26.234-0.00001-47.093-8.0026-62.577-24.008-15.48-16.004-23.23-38.046-23.23-66.126zm36.704-1.2034c-0.00005 19.977 4.613 35.119 13.839 45.428s20.939 15.464 35.139 15.464c14.2 0.000027 25.853-5.1144 34.959-15.343 9.1056-10.229 13.658-25.572 13.659-46.03-0.00015-20.217-4.4327-35.3-13.298-45.248-8.8652-9.948-20.638-14.922-35.32-14.922-14.682 0.000149-26.515 5.0344-35.5 15.103-8.9854 10.069-13.478 25.251-13.478 45.549z"/>
    <path id="path3347" d="m689.49 106.87v-176.42h120.94v29.844h-85.321v41.758h73.648v29.844h-73.648v74.972z"/>
    <path id="path3349" d="m838.83 106.87v-176.42h35.621v176.42z"/>
    <path id="path3351" d="m947.98 106.87v-146.57h-52.348v-29.844h140.2v29.844h-52.228v146.57z"/>
  </g>
  <path id="path3110" filter="url(#filter15393)" d="m8364.5-2388.1-390.53 225.47 82.156 47.437-1.6563 0.875 13.344 5.875 54.531 31.469-656.47 1074-381.06-634.66-50.375-89.656-57.031 80.094-605.28 933.69-458.22-733.87-40.625-69.375-56.688 55.594-986.69 1088.5 89.125 75.531 930-1030.5 471.12 752.28 52.906 80.062 52.906-88.188 600.59-930.59 387.66 643.47 57.656 89.719 52.25-95.875 701.66-1140.5 138.72 80.094v-450.94z" style="block-progression:tb;color:#000000;text-transform:none;text-indent:0" transform="matrix(.34702 -.093245 .093245 .34702 -1615 1635.1)"/>
  <path id="path3112" d="m1044.8 14.693-114.5 114.66 32.933 8.8011-0.4932 0.45806 5.1784 0.79453 21.858 5.8356l-127.7 433.91-191.42-184.7-25.84-26.42-12.32 33.11-122.99 380.45-227.44-211.94-20.57-20.29-14.48 24.58-240.91 469.76 37.976 17.9 226.64-444.33 233.63 217.12 25.83 22.85 10.14-35.53 121.64-378.94 194.53 187.15 28.374 25.758 9.192-38.143 137.14-461.22 55.607 14.859-42.048-156.49z" style="block-progression:tb;color:#000000;text-transform:none;text-indent:0" fill="#008000"/>
  <metadata>
    <rdf:RDF>
      <cc:Work>
        <dc:format>image/svg+xml</dc:format>
        <dc:type rdf:resource="http://purl.org/dc/dcmitype/StillImage"/>
        <cc:license rdf:resource="http://creativecommons.org/licenses/publicdomain/"/>
        <dc:publisher>
          <cc:Agent rdf:about="http://openclipart.org/">
            <dc:title>Openclipart</dc:title>
          </cc:Agent>
        </dc:publisher>
      </cc:Work>
      <cc:License rdf:about="http://creativecommons.org/licenses/publicdomain/">
        <cc:permits rdf:resource="http://creativecommons.org/ns#Reproduction"/>
        <cc:permits rdf:resource="http://creativecommons.org/ns#Distribution"/>
        <cc:permits rdf:resource="http://creativecommons.org/ns#DerivativeWorks"/>
      </cc:License>
    </rdf:RDF>
  </metadata>
</svg>
